HIERARCHY
ROOT Hips
{
    OFFSET   0.000000   0.000000   0.000000
    CHANNELS 6 Xposition Yposition Zposition Zrotation Xrotation Yrotation
    JOINT Chest
    {
        OFFSET   0.000000   8.007230   0.000000
        CHANNELS 3 Zrotation Xrotation Yrotation
        JOINT Chest2
        {
            OFFSET   0.000000  22.077100   0.000000
            CHANNELS 3 Zrotation Xrotation Yrotation
            JOINT Neck
            {
                OFFSET   0.000000  23.254800  -0.000021
                CHANNELS 3 Zrotation Xrotation Yrotation
                JOINT Head
                {
                    OFFSET   0.000000  14.370000   1.956610
                    CHANNELS 3 Zrotation Xrotation Yrotation
                    End Site
                    {
                        OFFSET   0.000000  19.566000   0.000000
                    }
                }
            }
            JOINT LeftCollar
            {
                OFFSET   3.911900  19.017000  -0.467063
                CHANNELS 3 Zrotation Xrotation Yrotation
                JOINT LeftShoulder
                {
                    OFFSET  10.383700   0.000000   0.000000
                    CHANNELS 3 Zrotation Xrotation Yrotation
                    JOINT LeftElbow
                    {
                        OFFSET  26.662100   0.001529   0.000325
                        CHANNELS 3 Zrotation Xrotation Yrotation
                        JOINT LeftWrist
                        {
                            OFFSET  28.869000  -0.000011  -0.000096
                            CHANNELS 3 Zrotation Xrotation Yrotation
                            JOINT LeftFinger0
                            {
                                OFFSET   2.044650  -2.323460   3.252850
                                CHANNELS 3 Zrotation Xrotation Yrotation
                                JOINT LeftFinger01
                                {
                                    OFFSET   3.088130   0.000000   0.000000
                                    CHANNELS 3 Zrotation Xrotation Yrotation
                                    JOINT LeftFinger02
                                    {
                                        OFFSET   2.639460   0.000000   0.000000
                                        CHANNELS 3 Zrotation Xrotation Yrotation
                                        End Site
                                        {
                                            OFFSET   2.582190   0.000000   0.000000
                                        }
                                    }
                                }
                            }
                            JOINT LeftFinger1
                            {
                                OFFSET   8.364480   0.000000   3.252850
                                CHANNELS 3 Zrotation Xrotation Yrotation
                                JOINT LeftFinger11
                                {
                                    OFFSET   4.646930   0.000000   0.000000
                                    CHANNELS 3 Zrotation Xrotation Yrotation
                                    JOINT LeftFinger12
                                    {
                                        OFFSET   2.323460   0.000000   0.000000
                                        CHANNELS 3 Zrotation Xrotation Yrotation
                                        End Site
                                        {
                                            OFFSET   2.273050   0.000000   0.000000
                                        }
                                    }
                                }
                            }
                            JOINT LeftFinger2
                            {
                                OFFSET   8.364480   0.000016   1.078090
                                CHANNELS 3 Zrotation Xrotation Yrotation
                                JOINT LeftFinger21
                                {
                                    OFFSET   5.111620   0.000000   0.000000
                                    CHANNELS 3 Zrotation Xrotation Yrotation
                                    JOINT LeftFinger22
                                    {
                                        OFFSET   2.788160   0.000017   0.000000
                                        CHANNELS 3 Zrotation Xrotation Yrotation
                                        End Site
                                        {
                                            OFFSET   2.727660   0.000000   0.000000
                                        }
                                    }
                                }
                            }
                            JOINT LeftFinger3
                            {
                                OFFSET   7.899780   0.000015  -1.078090
                                CHANNELS 3 Zrotation Xrotation Yrotation
                                JOINT LeftFinger31
                                {
                                    OFFSET   4.646920   0.000000   0.000000
                                    CHANNELS 3 Zrotation Xrotation Yrotation
                                    JOINT LeftFinger32
                                    {
                                        OFFSET   2.323470   0.000000   0.000000
                                        CHANNELS 3 Zrotation Xrotation Yrotation
                                        End Site
                                        {
                                            OFFSET   2.273050   0.000000   0.000000
                                        }
                                    }
                                }
                            }
                            JOINT LeftFinger4
                            {
                                OFFSET   7.435090   0.000000  -3.252850
                                CHANNELS 3 Zrotation Xrotation Yrotation
                                JOINT LeftFinger41
                                {
                                    OFFSET   3.717550   0.000000   0.000000
                                    CHANNELS 3 Zrotation Xrotation Yrotation
                                    JOINT LeftFinger42
                                    {
                                        OFFSET   1.858760   0.000000   0.000000
                                        CHANNELS 3 Zrotation Xrotation Yrotation
                                        End Site
                                        {
                                            OFFSET   1.818440   0.000000   0.000000
                                        }
                                    }
                                }
                            }
                        }
                    }
                }
            }
            JOINT RightCollar
            {
                OFFSET  -3.911900  19.017000  -0.467062
                CHANNELS 3 Zrotation Xrotation Yrotation
                JOINT RightShoulder
                {
                    OFFSET -10.383700   0.000015   0.000000
                    CHANNELS 3 Zrotation Xrotation Yrotation
                    JOINT RightElbow
                    {
                        OFFSET -26.662100   0.001341   0.000385
                        CHANNELS 3 Zrotation Xrotation Yrotation
                        JOINT RightWrist
                        {
                            OFFSET -28.869000   0.000025  -0.000080
                            CHANNELS 3 Zrotation Xrotation Yrotation
                            JOINT RightFinger0
                            {
                                OFFSET  -2.044650  -2.323490   3.252850
                                CHANNELS 3 Zrotation Xrotation Yrotation
                                JOINT RightFinger01
                                {
                                    OFFSET  -3.088130   0.000000   0.000000
                                    CHANNELS 3 Zrotation Xrotation Yrotation
                                    JOINT RightFinger02
                                    {
                                        OFFSET  -2.639460   0.000000   0.000000
                                        CHANNELS 3 Zrotation Xrotation Yrotation
                                        End Site
                                        {
                                            OFFSET  -2.582190   0.000000   0.000000
                                        }
                                    }
                                }
                            }
                            JOINT RightFinger1
                            {
                                OFFSET  -8.364480   0.000000   3.252850
                                CHANNELS 3 Zrotation Xrotation Yrotation
                                JOINT RightFinger11
                                {
                                    OFFSET  -4.646930   0.000000   0.000000
                                    CHANNELS 3 Zrotation Xrotation Yrotation
                                    JOINT RightFinger12
                                    {
                                        OFFSET  -2.323470   0.000000   0.000000
                                        CHANNELS 3 Zrotation Xrotation Yrotation
                                        End Site
                                        {
                                            OFFSET  -2.273050   0.000000   0.000000
                                        }
                                    }
                                }
                            }
                            JOINT RightFinger2
                            {
                                OFFSET  -8.364480   0.000000   1.078090
                                CHANNELS 3 Zrotation Xrotation Yrotation
                                JOINT RightFinger21
                                {
                                    OFFSET  -5.111610   0.000000   0.000000
                                    CHANNELS 3 Zrotation Xrotation Yrotation
                                    JOINT RightFinger22
                                    {
                                        OFFSET  -2.788160   0.000000   0.000000
                                        CHANNELS 3 Zrotation Xrotation Yrotation
                                        End Site
                                        {
                                            OFFSET  -2.727660   0.000000   0.000000
                                        }
                                    }
                                }
                            }
                            JOINT RightFinger3
                            {
                                OFFSET  -7.899780   0.000000  -1.078090
                                CHANNELS 3 Zrotation Xrotation Yrotation
                                JOINT RightFinger31
                                {
                                    OFFSET  -4.646920   0.000000   0.000000
                                    CHANNELS 3 Zrotation Xrotation Yrotation
                                    JOINT RightFinger32
                                    {
                                        OFFSET  -2.323470   0.000000   0.000000
                                        CHANNELS 3 Zrotation Xrotation Yrotation
                                        End Site
                                        {
                                            OFFSET  -2.273050   0.000000   0.000000
                                        }
                                    }
                                }
                            }
                            JOINT RightFinger4
                            {
                                OFFSET  -7.435090   0.000000  -3.252850
                                CHANNELS 3 Zrotation Xrotation Yrotation
                                JOINT RightFinger41
                                {
                                    OFFSET  -3.717550   0.000000   0.000000
                                    CHANNELS 3 Zrotation Xrotation Yrotation
                                    JOINT RightFinger42
                                    {
                                        OFFSET  -1.858770   0.000000   0.000000
                                        CHANNELS 3 Zrotation Xrotation Yrotation
                                        End Site
                                        {
                                            OFFSET  -1.818440   0.000000   0.000000
                                        }
                                    }
                                }
                            }
                        }
                    }
                }
            }
        }
    }
    JOINT LeftHip
    {
        OFFSET   9.783010   0.000000   0.000000
        CHANNELS 3 Zrotation Xrotation Yrotation
        JOINT LeftKnee
        {
            OFFSET   0.000070 -41.789100   0.000028
            CHANNELS 3 Zrotation Xrotation Yrotation
            JOINT LeftAnkle
            {
                OFFSET   0.000087 -41.133200  -0.000100
                CHANNELS 3 Zrotation Xrotation Yrotation
                JOINT LeftToe
                {
                    OFFSET   0.000000  -6.358960  14.674500
                    CHANNELS 3 Zrotation Xrotation Yrotation
                    End Site
                    {
                        OFFSET   0.000000   0.000000   3.913200
                    }
                }
            }
        }
    }
    JOINT RightHip
    {
        OFFSET  -9.783020   0.000000   0.000000
        CHANNELS 3 Zrotation Xrotation Yrotation
        JOINT RightKnee
        {
            OFFSET   0.000044 -41.789100  -0.000870
            CHANNELS 3 Zrotation Xrotation Yrotation
            JOINT RightAnkle
            {
                OFFSET  -0.000090 -41.133200  -0.000245
                CHANNELS 3 Zrotation Xrotation Yrotation
                JOINT RightToe
                {
                    OFFSET   0.000000  -6.358960  14.674500
                    CHANNELS 3 Zrotation Xrotation Yrotation
                    End Site
                    {
                        OFFSET   0.000000   0.000000   3.913200
                    }
                }
            }
        }
    }
}
MOTION
Frames: 4
Frame Time:   0.016667
 -1.003580  89.495300  -2.292140   0.002402  -3.878880   2.272720   0.476299   2.632850  -0.190523   0.962901   5.264040  -0.403617  -0.900518   1.033900   0.015282  -1.480490   2.094810   5.878040  -3.237060   0.728014   9.818420 -79.984900   4.169340   1.870810   0.882403   8.521460 -16.040900   8.190110  -5.431990  -2.947230  40.438700  29.433900 -54.750600 -27.716500   0.001352   0.000727  -8.858220   0.000000   0.008511 -32.474800  -1.115370   1.751900 -26.584300   0.003593   0.000412 -18.609000  -0.009950   0.001155 -29.133500  -3.750930   6.687740 -44.029400  -0.012339   0.002285 -29.323600  -0.000448   0.003216 -27.996600  -3.634210   6.799300 -33.504500   0.004733   0.001874 -22.314000  -0.000085   0.002643 -31.761200  -4.073810   6.546160 -48.001000   0.005533   0.003464 -31.971800  -0.002207   0.003928   7.202620   4.792910   4.781930  73.734600  -1.482710  -0.993890   3.826990  -1.400220  14.247700 -16.802800  -3.517860   4.341210 -45.101300  40.587900  83.490300   3.792820  -0.000665   0.000090  -3.103580  -0.000104  -0.000070  28.765800   0.825577   1.503580  23.544500  -0.007952   0.006643  16.481100   0.000113   0.006484  28.702100   0.823720   1.504010  39.311700  -0.007408   0.005064  26.181600  -0.000989   0.010132  28.787200   0.825975   1.502680  42.136700  -0.006840   0.004578  28.063100   0.005245   0.003408  37.222200  -0.308074  -0.405377  55.834700  -0.007768   0.002913  37.185900   0.007877   0.006547   1.380710   4.911170  -1.152200   0.745875   1.887850   9.935780  -2.750960  -3.233820  -4.216300  -0.000000   0.000000  -0.000000   0.459181   5.722210  -4.411160  -0.189502   2.718180 -13.886600   0.367788  -4.623170  -5.163440  -0.000000   0.000000   0.000000
 -1.013880  89.495300  -2.293690   0.013020  -3.925260   2.309900   0.476098   2.655230  -0.188321   0.962465   5.308810  -0.399471  -0.918624   1.075390   0.015301  -1.510630   2.178600   5.656790  -3.218800   0.739737   9.853270 -80.021400   4.230630   1.799610   0.887924   8.446550 -15.976100   8.209060  -5.436760  -2.927560  40.433000  29.504100 -54.738100 -27.788400   0.001353   0.000766  -8.894190   0.000000   0.008511 -32.495600  -1.121230   1.759720 -26.601500  -0.003613  -0.006277 -18.621000  -0.010216  -0.005103 -29.156100  -3.750980   6.681380 -44.063000  -0.012896  -0.002590 -29.346000  -0.000490  -0.004345 -28.000700  -3.642140   6.812840 -33.543000  -0.005460  -0.011124 -22.339600  -0.000091  -0.008375 -31.762800  -4.082340   6.559320 -48.001000  -0.007014  -0.016526 -31.971900  -0.002282  -0.011923   7.244550   4.749010   4.836780  73.732800  -1.362030  -0.988622   3.811230  -1.424380  14.274400 -16.871900  -3.458690   4.263510 -45.080400  40.588900  83.495700   4.098690  -0.000675   0.000109  -2.950660  -0.000106  -0.000072  28.841700   0.806454   1.462980  23.606300  -0.007947   0.006640  16.524400   0.000141   0.006483  28.709100   0.802122   1.464140  39.459300  -0.007415   0.004915  26.279900  -0.000995   0.010144  28.763600   0.803342   1.463650  42.359200  -0.006807   0.004550  28.211300   0.005231   0.003420  37.341500  -0.339165  -0.444113  56.013900  -0.007781   0.002876  37.305200   0.007884   0.006501   1.376380   4.919800  -1.152240   0.756082   1.934770   9.912540  -2.760530  -3.241670  -4.228510   0.000000   0.000000   0.000000   0.453912   5.723730  -4.399030  -0.191468   2.798130 -13.910500   0.386797  -4.653740  -5.169870   0.000000   0.000000  -0.000000
 -1.030870  89.495200  -2.297530   0.029083  -4.005080   2.350210   0.475962   2.698370  -0.186121   0.962311   5.395090  -0.395352  -0.944284   1.141530   0.015352  -1.552640   2.312420   5.295400  -3.201640   0.756289   9.906100 -80.079500   4.341820   1.670760   0.893764   8.308980 -15.854800   8.240550  -5.441620  -2.891020  40.423900  29.578400 -54.718900 -27.888100   0.001355   0.000804  -8.944030   0.000000   0.008511 -32.530100  -1.133510   1.776640 -26.629900  -0.011586  -0.012966 -18.641000  -0.010481  -0.011361 -29.190400  -3.751060   6.671700 -44.114100  -0.013452  -0.008285 -29.380000  -0.000560  -0.012335 -28.006900  -3.657670   6.839800 -33.605700  -0.016652  -0.024123 -22.381400  -0.000102  -0.019470 -31.764700  -4.099110   6.585520 -48.001000  -0.020891  -0.036515 -31.972000  -0.002408  -0.027983   7.316360   4.671560   4.924460  73.722700  -1.140270  -0.967995   3.788020  -1.447940  14.394500 -17.030500  -3.319460   4.108330 -44.983500  40.595500  83.533400   4.519840  -0.000692   0.000136  -2.740090  -0.000120  -0.000074  29.041000   0.787329   1.422380  23.769100  -0.007937   0.006634  16.638400   0.000168   0.006478  28.723100   0.780522   1.424270  39.759200  -0.007432   0.004765  26.479600  -0.001011   0.010168  28.740000   0.780708   1.424620  42.734500  -0.006741   0.004502  28.461200   0.005198   0.003437  37.531600  -0.388898  -0.505760  56.299500  -0.007813   0.002816  37.495400   0.007897   0.006409   1.368350   4.943640  -1.152320   0.773831   2.007020   9.889450  -2.776120  -3.255140  -4.247060  -0.000000   0.000000   0.000000   0.444888   5.733920  -4.377610  -0.184771   2.906900 -13.961500   0.413630  -4.704010  -5.176450   0.000000   0.000000  -0.000000
 -1.044100  89.495100  -2.303960   0.039613  -4.072460   2.353950   0.476601   2.744570  -0.186162   0.963824   5.487470  -0.395600  -0.956395   1.187160   0.015438  -1.572140   2.405410   5.026130  -3.206390   0.762921   9.943170 -80.119500   4.444930   1.542660   0.891013   8.176200 -15.731400   8.268390  -5.415640  -2.853250  40.402400  29.568000 -54.698900 -27.917600   0.001355   0.000796  -8.958810   0.000000   0.008517 -32.557200  -1.148440   1.798130 -26.652400  -0.012481  -0.012901 -18.656800  -0.008621  -0.011349 -29.211400  -3.751110   6.665670 -44.145300  -0.010503  -0.009242 -29.400800  -0.000629  -0.012835 -28.010800  -3.675250   6.871170 -33.652500  -0.017818  -0.024052 -22.412500  -0.000114  -0.019559 -31.765300  -4.118360   6.615900 -48.003300  -0.022441  -0.036438 -31.972000  -0.002535  -0.028227   7.380900   4.597680   4.998000  73.712400  -0.913821  -0.923498   3.775820  -1.442270  14.616300 -17.262100  -3.095830   3.916860 -44.947100  40.724800  83.738600   4.675120  -0.000712   0.000147  -2.662450  -0.000157  -0.000037  29.348800   0.798287   1.434860  24.021400  -0.007924   0.006624  16.815000   0.000162   0.006471  28.745000   0.788154   1.437870  40.086200  -0.007454   0.004826  26.697300  -0.001035   0.010200  28.754900   0.788350   1.438270  43.024300  -0.006656   0.004455  28.654200   0.005148   0.003444  37.638900  -0.417104  -0.540658  56.460900  -0.007859   0.002756  37.602900   0.007911   0.006288   1.357580   4.981420  -1.152430   0.791466   2.052090   9.890090  -2.787680  -3.266810  -4.260240   0.000000   0.000000  -0.000000   0.437838   5.802470  -4.352880  -0.168318   2.934780 -14.034200   0.427970  -4.744910  -5.133790   0.000000   0.000000   0.000000
